<mxfile host="www.draw.io" modified="2019-12-19T14:52:47.956Z" agent="Mozilla/5.0 (Macintosh; Intel Mac OS X 10_14_2) AppleWebKit/537.36 (KHTML, like Gecko) Chrome/78.0.3904.97 Safari/537.36" etag="4rRyaAvi2eB7Wuk55mh8" version="12.4.3" type="github" pages="1">
  <diagram id="J70zLY38wR2NkyfccbgC" name="Page-1">
    <mxGraphModel dx="3180" dy="2431" grid="1" gridSize="10" guides="1" tooltips="1" connect="1" arrows="1" fold="1" page="1" pageScale="1" pageWidth="827" pageHeight="1169" math="0" shadow="0">
      <root>
        <mxCell id="0"/>
        <mxCell id="1" parent="0"/>
        <mxCell id="vl5VAeucvgD57U5r1buc-6" value="" style="rounded=0;whiteSpace=wrap;html=1;" vertex="1" parent="1">
          <mxGeometry x="590" width="400" height="310" as="geometry"/>
        </mxCell>
        <mxCell id="s6GqBUCvVQPSU-Hxvb5w-60" value="" style="edgeStyle=orthogonalEdgeStyle;rounded=0;orthogonalLoop=1;jettySize=auto;html=1;" parent="1" source="s6GqBUCvVQPSU-Hxvb5w-3" target="s6GqBUCvVQPSU-Hxvb5w-59" edge="1">
          <mxGeometry relative="1" as="geometry"/>
        </mxCell>
        <mxCell id="s6GqBUCvVQPSU-Hxvb5w-3" value="URLを探索" style="html=1;whiteSpace=wrap;comic=1;strokeWidth=2;fontFamily=Comic Sans MS;fontStyle=1;" parent="1" vertex="1">
          <mxGeometry x="180" y="160" width="120" height="60" as="geometry"/>
        </mxCell>
        <mxCell id="s6GqBUCvVQPSU-Hxvb5w-64" value="" style="edgeStyle=orthogonalEdgeStyle;rounded=0;orthogonalLoop=1;jettySize=auto;html=1;" parent="1" source="s6GqBUCvVQPSU-Hxvb5w-59" target="s6GqBUCvVQPSU-Hxvb5w-63" edge="1">
          <mxGeometry relative="1" as="geometry"/>
        </mxCell>
        <mxCell id="s6GqBUCvVQPSU-Hxvb5w-65" style="edgeStyle=orthogonalEdgeStyle;rounded=0;orthogonalLoop=1;jettySize=auto;html=1;" parent="1" source="s6GqBUCvVQPSU-Hxvb5w-59" target="s6GqBUCvVQPSU-Hxvb5w-61" edge="1">
          <mxGeometry relative="1" as="geometry"/>
        </mxCell>
        <mxCell id="s6GqBUCvVQPSU-Hxvb5w-59" value="探索結果を&lt;br&gt;CloudSQLに&lt;br&gt;insert/update" style="html=1;whiteSpace=wrap;comic=1;strokeWidth=2;fontFamily=Comic Sans MS;fontStyle=1;" parent="1" vertex="1">
          <mxGeometry x="180" y="260" width="120" height="60" as="geometry"/>
        </mxCell>
        <mxCell id="s6GqBUCvVQPSU-Hxvb5w-67" style="edgeStyle=orthogonalEdgeStyle;rounded=0;orthogonalLoop=1;jettySize=auto;html=1;entryX=1;entryY=0.5;entryDx=0;entryDy=0;" parent="1" source="s6GqBUCvVQPSU-Hxvb5w-63" edge="1">
          <mxGeometry relative="1" as="geometry">
            <mxPoint x="40.2352941176473" y="390.58823529411757" as="targetPoint"/>
          </mxGeometry>
        </mxCell>
        <mxCell id="s6GqBUCvVQPSU-Hxvb5w-74" value="" style="edgeStyle=orthogonalEdgeStyle;rounded=0;orthogonalLoop=1;jettySize=auto;html=1;" parent="1" source="s6GqBUCvVQPSU-Hxvb5w-63" target="s6GqBUCvVQPSU-Hxvb5w-16" edge="1">
          <mxGeometry relative="1" as="geometry"/>
        </mxCell>
        <mxCell id="vl5VAeucvgD57U5r1buc-8" style="edgeStyle=orthogonalEdgeStyle;rounded=0;orthogonalLoop=1;jettySize=auto;html=1;entryX=0.003;entryY=0.126;entryDx=0;entryDy=0;entryPerimeter=0;" edge="1" parent="1" source="s6GqBUCvVQPSU-Hxvb5w-63" target="vl5VAeucvgD57U5r1buc-6">
          <mxGeometry relative="1" as="geometry">
            <Array as="points">
              <mxPoint x="370" y="390"/>
              <mxPoint x="370" y="39"/>
            </Array>
          </mxGeometry>
        </mxCell>
        <mxCell id="s6GqBUCvVQPSU-Hxvb5w-63" value="BigQuery保存&lt;br&gt;対象ならば、&lt;br&gt;Pub/Subに渡す" style="html=1;whiteSpace=wrap;comic=1;strokeWidth=2;fontFamily=Comic Sans MS;fontStyle=1;" parent="1" vertex="1">
          <mxGeometry x="180" y="360" width="120" height="60" as="geometry"/>
        </mxCell>
        <mxCell id="s6GqBUCvVQPSU-Hxvb5w-19" value="" style="edgeStyle=orthogonalEdgeStyle;rounded=0;orthogonalLoop=1;jettySize=auto;html=1;" parent="1" source="s6GqBUCvVQPSU-Hxvb5w-16" edge="1">
          <mxGeometry relative="1" as="geometry">
            <mxPoint x="240" y="560" as="targetPoint"/>
          </mxGeometry>
        </mxCell>
        <mxCell id="s6GqBUCvVQPSU-Hxvb5w-16" value="トップドメインと&lt;br&gt;一致するaタグを&lt;br&gt;取得する" style="html=1;whiteSpace=wrap;comic=1;strokeWidth=2;fontFamily=Comic Sans MS;fontStyle=1;" parent="1" vertex="1">
          <mxGeometry x="180" y="460" width="120" height="60" as="geometry"/>
        </mxCell>
        <mxCell id="s6GqBUCvVQPSU-Hxvb5w-9" value="" style="edgeStyle=orthogonalEdgeStyle;rounded=0;orthogonalLoop=1;jettySize=auto;html=1;" parent="1" source="s6GqBUCvVQPSU-Hxvb5w-6" target="s6GqBUCvVQPSU-Hxvb5w-3" edge="1">
          <mxGeometry relative="1" as="geometry"/>
        </mxCell>
        <mxCell id="s6GqBUCvVQPSU-Hxvb5w-6" value="" style="strokeWidth=2;html=1;shape=mxgraph.flowchart.loop_limit;whiteSpace=wrap;" parent="1" vertex="1">
          <mxGeometry x="180" y="60" width="120" height="60" as="geometry"/>
        </mxCell>
        <mxCell id="s6GqBUCvVQPSU-Hxvb5w-15" value="" style="edgeStyle=orthogonalEdgeStyle;rounded=0;orthogonalLoop=1;jettySize=auto;html=1;" parent="1" source="s6GqBUCvVQPSU-Hxvb5w-14" target="s6GqBUCvVQPSU-Hxvb5w-6" edge="1">
          <mxGeometry relative="1" as="geometry"/>
        </mxCell>
        <mxCell id="s6GqBUCvVQPSU-Hxvb5w-14" value="トップドメインを&lt;br&gt;受け取る" style="html=1;whiteSpace=wrap;comic=1;strokeWidth=2;fontFamily=Comic Sans MS;fontStyle=1;" parent="1" vertex="1">
          <mxGeometry x="180" y="-40" width="120" height="60" as="geometry"/>
        </mxCell>
        <mxCell id="s6GqBUCvVQPSU-Hxvb5w-52" value="" style="edgeStyle=orthogonalEdgeStyle;rounded=0;orthogonalLoop=1;jettySize=auto;html=1;" parent="1" source="s6GqBUCvVQPSU-Hxvb5w-49" target="s6GqBUCvVQPSU-Hxvb5w-51" edge="1">
          <mxGeometry relative="1" as="geometry"/>
        </mxCell>
        <mxCell id="s6GqBUCvVQPSU-Hxvb5w-57" style="edgeStyle=orthogonalEdgeStyle;rounded=0;orthogonalLoop=1;jettySize=auto;html=1;entryX=-0.006;entryY=0.06;entryDx=0;entryDy=0;entryPerimeter=0;" parent="1" source="s6GqBUCvVQPSU-Hxvb5w-49" target="s6GqBUCvVQPSU-Hxvb5w-55" edge="1">
          <mxGeometry relative="1" as="geometry"/>
        </mxCell>
        <mxCell id="s6GqBUCvVQPSU-Hxvb5w-49" value="次の探索対象を&lt;br&gt;判定する" style="html=1;whiteSpace=wrap;comic=1;strokeWidth=2;fontFamily=Comic Sans MS;fontStyle=1;" parent="1" vertex="1">
          <mxGeometry x="180" y="565" width="120" height="60" as="geometry"/>
        </mxCell>
        <mxCell id="vl5VAeucvgD57U5r1buc-10" value="" style="edgeStyle=orthogonalEdgeStyle;rounded=0;orthogonalLoop=1;jettySize=auto;html=1;" edge="1" parent="1" source="s6GqBUCvVQPSU-Hxvb5w-51" target="vl5VAeucvgD57U5r1buc-9">
          <mxGeometry relative="1" as="geometry"/>
        </mxCell>
        <mxCell id="vl5VAeucvgD57U5r1buc-18" style="edgeStyle=orthogonalEdgeStyle;rounded=0;orthogonalLoop=1;jettySize=auto;html=1;entryX=0.5;entryY=0;entryDx=0;entryDy=0;" edge="1" parent="1" source="s6GqBUCvVQPSU-Hxvb5w-51" target="s6GqBUCvVQPSU-Hxvb5w-53">
          <mxGeometry relative="1" as="geometry"/>
        </mxCell>
        <mxCell id="s6GqBUCvVQPSU-Hxvb5w-51" value="CloudMemoryStore&lt;br&gt;探索対象を&lt;br&gt;一時保存" style="html=1;whiteSpace=wrap;comic=1;strokeWidth=2;fontFamily=Comic Sans MS;fontStyle=1;" parent="1" vertex="1">
          <mxGeometry x="180" y="670" width="120" height="60" as="geometry"/>
        </mxCell>
        <mxCell id="vl5VAeucvgD57U5r1buc-11" style="edgeStyle=orthogonalEdgeStyle;rounded=0;orthogonalLoop=1;jettySize=auto;html=1;entryX=0.5;entryY=1;entryDx=0;entryDy=0;" edge="1" parent="1" source="vl5VAeucvgD57U5r1buc-9" target="s6GqBUCvVQPSU-Hxvb5w-53">
          <mxGeometry relative="1" as="geometry"/>
        </mxCell>
        <mxCell id="vl5VAeucvgD57U5r1buc-13" value="" style="edgeStyle=orthogonalEdgeStyle;rounded=0;orthogonalLoop=1;jettySize=auto;html=1;" edge="1" parent="1" source="vl5VAeucvgD57U5r1buc-9" target="vl5VAeucvgD57U5r1buc-12">
          <mxGeometry relative="1" as="geometry"/>
        </mxCell>
        <mxCell id="vl5VAeucvgD57U5r1buc-9" value="ドメインが一致する&lt;br&gt;クロール対象URLを&lt;br&gt;ランダムに取得" style="html=1;whiteSpace=wrap;comic=1;strokeWidth=2;fontFamily=Comic Sans MS;fontStyle=1;" vertex="1" parent="1">
          <mxGeometry x="180" y="780" width="120" height="60" as="geometry"/>
        </mxCell>
        <mxCell id="vl5VAeucvgD57U5r1buc-15" style="edgeStyle=orthogonalEdgeStyle;rounded=0;orthogonalLoop=1;jettySize=auto;html=1;entryX=0.5;entryY=1;entryDx=0;entryDy=0;entryPerimeter=0;" edge="1" parent="1" source="vl5VAeucvgD57U5r1buc-12" target="vl5VAeucvgD57U5r1buc-14">
          <mxGeometry relative="1" as="geometry"/>
        </mxCell>
        <mxCell id="vl5VAeucvgD57U5r1buc-12" value="URLを次の探索&lt;br&gt;対象にしてループ" style="html=1;whiteSpace=wrap;comic=1;strokeWidth=2;fontFamily=Comic Sans MS;fontStyle=1;" vertex="1" parent="1">
          <mxGeometry x="180" y="890" width="120" height="60" as="geometry"/>
        </mxCell>
        <mxCell id="s6GqBUCvVQPSU-Hxvb5w-53" value="Cloud&lt;br&gt;Memory&lt;br&gt;Store" style="shape=cylinder;whiteSpace=wrap;html=1;boundedLbl=1;backgroundOutline=1;" parent="1" vertex="1">
          <mxGeometry x="440" y="710" width="60" height="80" as="geometry"/>
        </mxCell>
        <mxCell id="s6GqBUCvVQPSU-Hxvb5w-58" value="" style="group" parent="1" vertex="1" connectable="0">
          <mxGeometry x="590" y="350" width="620" height="550" as="geometry"/>
        </mxCell>
        <mxCell id="s6GqBUCvVQPSU-Hxvb5w-55" value="" style="rounded=0;whiteSpace=wrap;html=1;" parent="s6GqBUCvVQPSU-Hxvb5w-58" vertex="1">
          <mxGeometry width="620" height="550" as="geometry"/>
        </mxCell>
        <mxCell id="s6GqBUCvVQPSU-Hxvb5w-21" value="新規にクロールした&lt;br&gt;ページ？" style="rhombus;html=1;align=center;whiteSpace=wrap;comic=1;strokeWidth=2;fontFamily=Comic Sans MS;fontStyle=1;" parent="s6GqBUCvVQPSU-Hxvb5w-58" vertex="1">
          <mxGeometry x="50" y="50" width="120" height="120" as="geometry"/>
        </mxCell>
        <mxCell id="s6GqBUCvVQPSU-Hxvb5w-32" value="" style="edgeStyle=orthogonalEdgeStyle;rounded=0;orthogonalLoop=1;jettySize=auto;html=1;" parent="s6GqBUCvVQPSU-Hxvb5w-58" source="s6GqBUCvVQPSU-Hxvb5w-22" edge="1">
          <mxGeometry relative="1" as="geometry">
            <mxPoint x="450.0000000000002" y="110" as="targetPoint"/>
          </mxGeometry>
        </mxCell>
        <mxCell id="s6GqBUCvVQPSU-Hxvb5w-22" value="3ヶ月以内に&lt;br&gt;更新されてる？" style="rhombus;html=1;align=center;whiteSpace=wrap;comic=1;strokeWidth=2;fontFamily=Comic Sans MS;fontStyle=1;" parent="s6GqBUCvVQPSU-Hxvb5w-58" vertex="1">
          <mxGeometry x="250" y="50" width="120" height="120" as="geometry"/>
        </mxCell>
        <mxCell id="s6GqBUCvVQPSU-Hxvb5w-23" value="" style="edgeStyle=orthogonalEdgeStyle;rounded=0;orthogonalLoop=1;jettySize=auto;html=1;" parent="s6GqBUCvVQPSU-Hxvb5w-58" source="s6GqBUCvVQPSU-Hxvb5w-21" target="s6GqBUCvVQPSU-Hxvb5w-22" edge="1">
          <mxGeometry relative="1" as="geometry"/>
        </mxCell>
        <mxCell id="s6GqBUCvVQPSU-Hxvb5w-29" value="" style="edgeStyle=orthogonalEdgeStyle;rounded=0;orthogonalLoop=1;jettySize=auto;html=1;" parent="s6GqBUCvVQPSU-Hxvb5w-58" source="s6GqBUCvVQPSU-Hxvb5w-25" edge="1">
          <mxGeometry relative="1" as="geometry">
            <mxPoint x="310.0000000000002" y="450" as="targetPoint"/>
          </mxGeometry>
        </mxCell>
        <mxCell id="s6GqBUCvVQPSU-Hxvb5w-25" value="商品とASP&lt;br&gt;両方ある&lt;br&gt;ページ？" style="rhombus;html=1;align=center;whiteSpace=wrap;comic=1;strokeWidth=2;fontFamily=Comic Sans MS;fontStyle=1;" parent="s6GqBUCvVQPSU-Hxvb5w-58" vertex="1">
          <mxGeometry x="250" y="250" width="120" height="120" as="geometry"/>
        </mxCell>
        <mxCell id="s6GqBUCvVQPSU-Hxvb5w-26" value="" style="edgeStyle=orthogonalEdgeStyle;rounded=0;orthogonalLoop=1;jettySize=auto;html=1;" parent="s6GqBUCvVQPSU-Hxvb5w-58" source="s6GqBUCvVQPSU-Hxvb5w-22" target="s6GqBUCvVQPSU-Hxvb5w-25" edge="1">
          <mxGeometry relative="1" as="geometry"/>
        </mxCell>
        <mxCell id="s6GqBUCvVQPSU-Hxvb5w-24" value="NO" style="text;html=1;align=center;verticalAlign=middle;resizable=0;points=[];;autosize=1;" parent="s6GqBUCvVQPSU-Hxvb5w-58" vertex="1">
          <mxGeometry x="195" y="86" width="30" height="20" as="geometry"/>
        </mxCell>
        <mxCell id="s6GqBUCvVQPSU-Hxvb5w-27" value="YES" style="text;html=1;align=center;verticalAlign=middle;resizable=0;points=[];;autosize=1;" parent="s6GqBUCvVQPSU-Hxvb5w-58" vertex="1">
          <mxGeometry x="322" y="205" width="40" height="20" as="geometry"/>
        </mxCell>
        <mxCell id="s6GqBUCvVQPSU-Hxvb5w-30" value="YES" style="text;html=1;align=center;verticalAlign=middle;resizable=0;points=[];;autosize=1;" parent="s6GqBUCvVQPSU-Hxvb5w-58" vertex="1">
          <mxGeometry x="322" y="402" width="40" height="20" as="geometry"/>
        </mxCell>
        <mxCell id="s6GqBUCvVQPSU-Hxvb5w-33" value="NO" style="text;html=1;align=center;verticalAlign=middle;resizable=0;points=[];;autosize=1;" parent="s6GqBUCvVQPSU-Hxvb5w-58" vertex="1">
          <mxGeometry x="399" y="87" width="30" height="20" as="geometry"/>
        </mxCell>
        <mxCell id="s6GqBUCvVQPSU-Hxvb5w-35" value="探索対象外" style="html=1;whiteSpace=wrap;comic=1;strokeWidth=2;fontFamily=Comic Sans MS;fontStyle=1;fillColor=#f8cecc;strokeColor=#b85450;" parent="s6GqBUCvVQPSU-Hxvb5w-58" vertex="1">
          <mxGeometry x="450" y="80" width="120" height="60" as="geometry"/>
        </mxCell>
        <mxCell id="s6GqBUCvVQPSU-Hxvb5w-42" value="" style="edgeStyle=orthogonalEdgeStyle;rounded=0;orthogonalLoop=1;jettySize=auto;html=1;" parent="s6GqBUCvVQPSU-Hxvb5w-58" edge="1">
          <mxGeometry relative="1" as="geometry">
            <mxPoint x="370.0000000000002" y="310" as="sourcePoint"/>
            <mxPoint x="450.0000000000002" y="310" as="targetPoint"/>
          </mxGeometry>
        </mxCell>
        <mxCell id="s6GqBUCvVQPSU-Hxvb5w-43" value="NO" style="text;html=1;align=center;verticalAlign=middle;resizable=0;points=[];;autosize=1;" parent="s6GqBUCvVQPSU-Hxvb5w-58" vertex="1">
          <mxGeometry x="399" y="287" width="30" height="20" as="geometry"/>
        </mxCell>
        <mxCell id="s6GqBUCvVQPSU-Hxvb5w-44" value="探索対象外" style="html=1;whiteSpace=wrap;comic=1;strokeWidth=2;fontFamily=Comic Sans MS;fontStyle=1;fillColor=#f8cecc;strokeColor=#b85450;" parent="s6GqBUCvVQPSU-Hxvb5w-58" vertex="1">
          <mxGeometry x="450" y="280" width="120" height="60" as="geometry"/>
        </mxCell>
        <mxCell id="s6GqBUCvVQPSU-Hxvb5w-45" value="探索対象" style="html=1;whiteSpace=wrap;comic=1;strokeWidth=2;fontFamily=Comic Sans MS;fontStyle=1;fillColor=#dae8fc;strokeColor=#6c8ebf;" parent="s6GqBUCvVQPSU-Hxvb5w-58" vertex="1">
          <mxGeometry x="250" y="450" width="120" height="60" as="geometry"/>
        </mxCell>
        <mxCell id="s6GqBUCvVQPSU-Hxvb5w-46" value="探索対象" style="html=1;whiteSpace=wrap;comic=1;strokeWidth=2;fontFamily=Comic Sans MS;fontStyle=1;fillColor=#dae8fc;strokeColor=#6c8ebf;" parent="s6GqBUCvVQPSU-Hxvb5w-58" vertex="1">
          <mxGeometry x="50" y="280" width="120" height="60" as="geometry"/>
        </mxCell>
        <mxCell id="s6GqBUCvVQPSU-Hxvb5w-47" style="edgeStyle=orthogonalEdgeStyle;rounded=0;orthogonalLoop=1;jettySize=auto;html=1;entryX=0.5;entryY=0;entryDx=0;entryDy=0;" parent="s6GqBUCvVQPSU-Hxvb5w-58" source="s6GqBUCvVQPSU-Hxvb5w-21" target="s6GqBUCvVQPSU-Hxvb5w-46" edge="1">
          <mxGeometry relative="1" as="geometry"/>
        </mxCell>
        <mxCell id="s6GqBUCvVQPSU-Hxvb5w-56" value="探索対象判定ロジック" style="text;html=1;align=center;verticalAlign=middle;resizable=0;points=[];;autosize=1;" parent="s6GqBUCvVQPSU-Hxvb5w-58" vertex="1">
          <mxGeometry x="10" y="20" width="140" height="20" as="geometry"/>
        </mxCell>
        <mxCell id="s6GqBUCvVQPSU-Hxvb5w-61" value="Cloud&lt;br&gt;SQL" style="shape=cylinder;whiteSpace=wrap;html=1;boundedLbl=1;backgroundOutline=1;" parent="1" vertex="1">
          <mxGeometry x="-20" y="250" width="60" height="80" as="geometry"/>
        </mxCell>
        <mxCell id="s6GqBUCvVQPSU-Hxvb5w-73" value="Pub/Sub" style="shape=card;whiteSpace=wrap;html=1;" parent="1" vertex="1">
          <mxGeometry x="-40" y="360" width="80" height="60" as="geometry"/>
        </mxCell>
        <mxCell id="vl5VAeucvgD57U5r1buc-2" value="" style="edgeStyle=orthogonalEdgeStyle;rounded=0;orthogonalLoop=1;jettySize=auto;html=1;entryX=0.5;entryY=0;entryDx=0;entryDy=0;" edge="1" parent="1" source="s6GqBUCvVQPSU-Hxvb5w-75" target="vl5VAeucvgD57U5r1buc-3">
          <mxGeometry relative="1" as="geometry">
            <mxPoint x="690" y="190" as="targetPoint"/>
          </mxGeometry>
        </mxCell>
        <mxCell id="vl5VAeucvgD57U5r1buc-5" style="edgeStyle=orthogonalEdgeStyle;rounded=0;orthogonalLoop=1;jettySize=auto;html=1;" edge="1" parent="1" source="s6GqBUCvVQPSU-Hxvb5w-75" target="vl5VAeucvgD57U5r1buc-4">
          <mxGeometry relative="1" as="geometry"/>
        </mxCell>
        <mxCell id="s6GqBUCvVQPSU-Hxvb5w-75" value="商品とASP&lt;br&gt;両方ある&lt;br&gt;ページ？" style="rhombus;html=1;align=center;whiteSpace=wrap;comic=1;strokeWidth=2;fontFamily=Comic Sans MS;fontStyle=1;" parent="1" vertex="1">
          <mxGeometry x="630" y="35" width="120" height="110" as="geometry"/>
        </mxCell>
        <mxCell id="vl5VAeucvgD57U5r1buc-3" value="保存対象" style="html=1;whiteSpace=wrap;comic=1;strokeWidth=2;fontFamily=Comic Sans MS;fontStyle=1;fillColor=#dae8fc;strokeColor=#6c8ebf;" vertex="1" parent="1">
          <mxGeometry x="630" y="200" width="120" height="60" as="geometry"/>
        </mxCell>
        <mxCell id="vl5VAeucvgD57U5r1buc-4" value="保存対象外" style="html=1;whiteSpace=wrap;comic=1;strokeWidth=2;fontFamily=Comic Sans MS;fontStyle=1;fillColor=#f8cecc;strokeColor=#b85450;" vertex="1" parent="1">
          <mxGeometry x="800" y="200" width="120" height="60" as="geometry"/>
        </mxCell>
        <mxCell id="vl5VAeucvgD57U5r1buc-7" value="BigQuery保存判断ロジック" style="text;html=1;align=center;verticalAlign=middle;resizable=0;points=[];;autosize=1;" vertex="1" parent="1">
          <mxGeometry x="590" width="160" height="20" as="geometry"/>
        </mxCell>
        <mxCell id="vl5VAeucvgD57U5r1buc-16" style="edgeStyle=orthogonalEdgeStyle;rounded=0;orthogonalLoop=1;jettySize=auto;html=1;entryX=0;entryY=0.5;entryDx=0;entryDy=0;entryPerimeter=0;" edge="1" parent="1" source="vl5VAeucvgD57U5r1buc-14" target="s6GqBUCvVQPSU-Hxvb5w-6">
          <mxGeometry relative="1" as="geometry">
            <Array as="points">
              <mxPoint x="-150" y="1030"/>
              <mxPoint x="-150" y="90"/>
            </Array>
          </mxGeometry>
        </mxCell>
        <mxCell id="vl5VAeucvgD57U5r1buc-20" style="edgeStyle=orthogonalEdgeStyle;rounded=0;orthogonalLoop=1;jettySize=auto;html=1;" edge="1" parent="1" source="vl5VAeucvgD57U5r1buc-14" target="vl5VAeucvgD57U5r1buc-19">
          <mxGeometry relative="1" as="geometry"/>
        </mxCell>
        <mxCell id="vl5VAeucvgD57U5r1buc-14" value="" style="strokeWidth=2;html=1;shape=mxgraph.flowchart.loop_limit;whiteSpace=wrap;rotation=-180;" vertex="1" parent="1">
          <mxGeometry x="180" y="1000" width="120" height="60" as="geometry"/>
        </mxCell>
        <mxCell id="vl5VAeucvgD57U5r1buc-17" value="次の探索対象URLを渡す" style="text;html=1;align=center;verticalAlign=middle;resizable=0;points=[];;autosize=1;" vertex="1" parent="1">
          <mxGeometry x="-85" y="65" width="150" height="20" as="geometry"/>
        </mxCell>
        <mxCell id="vl5VAeucvgD57U5r1buc-21" style="edgeStyle=orthogonalEdgeStyle;rounded=0;orthogonalLoop=1;jettySize=auto;html=1;entryX=1;entryY=0.5;entryDx=0;entryDy=0;" edge="1" parent="1" source="vl5VAeucvgD57U5r1buc-19" target="s6GqBUCvVQPSU-Hxvb5w-53">
          <mxGeometry relative="1" as="geometry"/>
        </mxCell>
        <mxCell id="vl5VAeucvgD57U5r1buc-23" value="" style="edgeStyle=orthogonalEdgeStyle;rounded=0;orthogonalLoop=1;jettySize=auto;html=1;" edge="1" parent="1" source="vl5VAeucvgD57U5r1buc-19" target="vl5VAeucvgD57U5r1buc-22">
          <mxGeometry relative="1" as="geometry"/>
        </mxCell>
        <mxCell id="vl5VAeucvgD57U5r1buc-19" value="ドメインが一致する&lt;br&gt;データを削除" style="html=1;whiteSpace=wrap;comic=1;strokeWidth=2;fontFamily=Comic Sans MS;fontStyle=1;" vertex="1" parent="1">
          <mxGeometry x="180" y="1109" width="120" height="60" as="geometry"/>
        </mxCell>
        <mxCell id="vl5VAeucvgD57U5r1buc-22" value="探索終了" style="html=1;whiteSpace=wrap;comic=1;strokeWidth=2;fontFamily=Comic Sans MS;fontStyle=1;" vertex="1" parent="1">
          <mxGeometry x="180" y="1210" width="120" height="60" as="geometry"/>
        </mxCell>
      </root>
    </mxGraphModel>
  </diagram>
</mxfile>
